# xmcd
#
# Track frame offsets: 
#        150
#        23542
#        61725
#        91250
#        120250
#        150702
#        185562
#        236760
#        261892
#        281750
#        303492
#
# Disc length: 4489 seconds
#
# Revision: 2
# Processed by: cddbd v1.5.2PL0 Copyright (c) Steve Scherf et al.
# Submitted via: ExactAudioCopyFreeDBPlugin 1.0
#
DISCID=8911870b
DTITLE=Ronnie Earl - I Feel Like Goin' On
DYEAR=2003
DGENRE=Blues
TTITLE0=Hey Jose
TTITLE1=Blues For Otis Rush
TTITLE2=Little Johnny Lee
TTITLE3=Wolf Dance
TTITLE4=Mary Don't You Weep
TTITLE5=Howlin' For My Darlin'
TTITLE6=Blues For The Homeless
TTITLE7=Big Walter
TTITLE8=Alone With The Blues
TTITLE9=Travelin' Heavy
TTITLE10=Donna
EXTD=YEAR: 2003 ID3G: 0
EXTT0=
EXTT1=
EXTT2=
EXTT3=
EXTT4=
EXTT5=
EXTT6=
EXTT7=
EXTT8=
EXTT9=
EXTT10=
PLAYORDER=
